#!OML:ASF F:\VICON\USERDATA\INSTALL\rory3\rory3.ASF
:FULLY-SPECIFIED
:DEGREES
36
root 0.2786934447881741 18.21166051710105 0.5915729322512613 3.133671713125068 4.479469873554561 -0.431533843407063
lfemur 4.541302450119826 -2.4799828746066552 -24.971843704560328
ltibia 24.68540603200539
lfoot 25.804382698785773 -18.406413748520194
ltoes -4.907798016945002
rfemur -28.094462029008014 1.8380983283334107 23.377957639303624
rtibia 21.739527811813293
rfoot 1.2489695530315426 -11.254283450375302
rtoes -6.5063473138085985
lowerback 11.30282166436934 -1.8032292650033668 -0.8111518074518806
upperback -0.6329669921869233 -2.4934372576559323 1.4474488983306757
thorax -5.509596173470703 -1.1902158343879947 1.5599664396373516
lowerneck -17.474735047070876 -3.1251386075511904 -2.185186178902913
upperneck 17.517102714638384 -3.909244120538254 2.2458051134466013
head 8.547673270817695 -1.807651306641168 0.6032423408525621
lclavicle -1.6758986909543134e-15 -3.5924038880988845e-15
lhumerus -35.86001798350633 -8.72152047852914 89.01365574674651
lradius 73.71363233279986
lwrist 21.41443047187493
lhand -29.37149116323195 13.304320589502998
lfingers 7.125019999999999
lthumb -2.8249914190214556 43.50520156046787
rclavicle -1.6744851875638058e-15 -3.59137244915044e-15
rhumerus -42.37510692837567 -4.688172246551424 -86.92334691426423
rradius 63.79374185888317
rwrist -2.0564532935434148
rhand -17.53450439385991 29.22226477984031
rfingers 7.125019999999999
rthumb 7.9823102737497535 -1.6822694778392717
37
root 0.250372804043119 18.44099147677384 1.8324106235164068 2.5373770965481537 6.031459670183764 -0.7805209019984687
lfemur 4.216037632975443 -3.6869462406937314 -24.090063824310402
ltibia 28.884449736610563
lfoot 31.288206242913883 -19.18146439754034
ltoes -2.8609788021906137
rfemur -25.691208102418685 3.3449917420049275 23.230562197487234
rtibia 25.854783843033953
rfoot 5.930742724120408 -8.35318794938747
rtoes -3.269356890544681
lowerback 11.087518365689341 -2.1350685856435154 -0.475769671084981
upperback -0.555215084242898 -2.7893251212746053 1.7798726226413766
thorax -5.3774219976989315 -1.3340872267657233 1.704545117097955
lowerneck -17.289155346917042 -3.086062881416756 -2.3825098670436815
upperneck 17.82464933844728 -3.8235159688959586 2.240359805816835
head 8.641579916243352 -1.7952328677755673 0.6377341507864187
lclavicle -1.6769537355617838e-15 -3.593151662582812e-15
lhumerus -35.73684257420799 -9.500401308477464 89.21544930640684
lradius 76.73777224389868
lwrist 23.36730115355003
lhand -29.34908018587797 13.201705816813558
lfingers 7.125019999999999
lthumb -2.7119009263770164 43.15903262108801
rclavicle -1.675996394651302e-15 -3.592441117974938e-15
rhumerus -42.43884989832344 -4.914688073547105 -86.39488804950712
rradius 62.853104078133335
rwrist -1.7301103550107202
rhand -17.514382286169916 29.623987115753092
rfingers 7.125019999999999
rthumb 7.906961190633472 -0.687257698762658
38
root 0.22735610727775712 18.632253904687733 3.3034683335344157 1.9854884089496851 7.20737990705449 -1.1127720978470501
lfemur 2.1537302677109853 -4.3402244111646455 -22.920033561764164
ltibia 35.6359725790353
lfoot 33.84343520103852 -20.24417692371759
ltoes -3.619737276493752
rfemur -22.876350418826753 4.054586411044592 23.867951014700488
rtibia 28.78481444479771
rfoot 7.495758957035256 -5.546676075654968
rtoes 3.199881169459375
lowerback 10.606434748083396 -2.3259437438921413 -0.18575207280639727
upperback -0.5738851916650626 -3.0089510546744993 2.0403643039957298
thorax -5.198138973032958 -1.441154205010161 1.8498500609182054
lowerneck -16.967727975153053 -2.9905885123915565 -2.5135495486166084
upperneck 18.460165708953692 -3.6387486291283606 2.161687740964718
head 8.795042194318384 -1.7364557381454757 0.65393277909348
lclavicle -1.6751844707451183e-15 -3.591901954483963e-15
lhumerus -35.90348469207345 -10.042579001655513 89.32734128537054
lradius 78.74070059347332
lwrist 24.7247442408219
lhand -29.153832638472235 12.644094421959101
lfingers 7.125019999999999
lthumb -2.3687455029979914 42.93693602867278
rclavicle -1.6753021024775076e-15 -3.591950074287723e-15
rhumerus -42.62353241346966 -5.8162114056665715 -85.56421169003357
rradius 61.499507166970346
rwrist -0.22840046067707176
rhand -17.340513757877957 29.96443986352416
rfingers 7.125019999999999
rthumb 8.028933878103125 0.4204647723881998
39
root 0.21112669728579225 18.77544806148537 4.755031743294414 2.009050324379035 7.500929536443235 -1.2357264600010094
lfemur -1.3362661684534523 -4.142363342839812 -21.89347048724655
ltibia 42.432813159610724
lfoot 30.897725151091304 -19.898209536273995
ltoes -3.055058852641249
rfemur -19.941538598224856 4.467504269365911 25.175185815213574
rtibia 30.325135947170132
rfoot 6.955071157846969 -4.2371378879616035
rtoes 8.9585175727864
lowerback 9.590126581322833 -2.2231165154753696 -0.17278298144972504
upperback -0.7868077574724235 -2.8655593047000663 2.1636591895038566
thorax -4.901451452244327 -1.3703225677041082 2.0094127337786087
lowerneck -16.702375343532992 -2.983438040906732 -2.663450297432055
upperneck 19.148232605173035 -3.6218638238060836 2.246393053972829
head 8.941095752742926 -1.7351712077208252 0.7260118904128612
lclavicle -1.6749762711149475e-15 -3.591753280683948e-15
lhumerus -36.545676479020095 -10.320893433084816 89.41434492902275
lradius 79.90274234201372
lwrist 25.065454488232902
lhand -29.155483546316155 12.36484294727368
lfingers 7.125019999999999
lthumb -2.4920927495291023 42.43513337126733
rclavicle -1.6739901197623377e-15 -3.591022341730369e-15
rhumerus -42.843970818463305 -6.631106472862231 -84.9492659546294
rradius 60.51854318296735
rwrist 0.9418387911696628
rhand -17.158995477162065 30.049553926977755
rfingers 7.125019999999999
rthumb 8.015602891493756 1.031741043669196
40
root 0.1811745425964229 18.9039581103304 6.166043332384904 1.837754384238928 7.427833586119974 -1.1754551287851887
lfemur -5.2596741814060115 -3.881619628664917 -21.18984799469009
ltibia 48.52468109962705
lfoot 26.44089492609803 -17.779987995285055
ltoes -3.700906144912232
rfemur -16.939923651241973 4.403935399915923 26.5431313609145
rtibia 30.58818059551295
rfoot 5.619563524637182 -4.246811772275208
rtoes 11.357901125760648
lowerback 9.450764004804949 -1.992528660998052 -0.2185122449884631
upperback -1.1213628397434838 -2.587487806135849 2.196475360536865
thorax -5.311912718293883 -1.2218358329894579 2.0305114232343575
lowerneck -16.38312203724973 -2.9952403104535334 -2.7845307310521
upperneck 19.45676667686266 -3.626032886338706 2.2186996515853497
head 8.934490349261687 -1.7346727758782063 0.7429749033622344
lclavicle -1.6747411002651828e-15 -3.591583473720013e-15
lhumerus -37.28650600158036 -10.599046837300946 89.52005496118235
lradius 80.3672554274275
lwrist 24.87885456565722
lhand -29.227868752807083 12.310796805946701
lfingers 7.125019999999999
lthumb -2.535465375343479 42.21930777881101
rclavicle -1.675900059440981e-15 -3.592372969258917e-15
rhumerus -42.89394994844274 -7.170786339978503 -84.70634051435978
rradius 60.01320249087985
rwrist 1.176603985510142
rhand -16.99047316335799 29.71429685423335
rfingers 7.125019999999999
rthumb 7.9945601454769095 1.1335174539765531
41
root 0.15847620660478917 18.911062057677327 7.4445622295489065 1.7676177841274299 7.484964294954822 -2.0025441203028476
lfemur -9.632089649978894 -3.650800760080357 -19.645992304035683
ltibia 53.5064142489002
lfoot 24.497707184755885 -14.904603323165551
ltoes -3.8266107823363953
rfemur -13.874190192040952 4.180905744321018 28.719821403922708
rtibia 30.882187428451218
rfoot 3.649335420878474 -4.749088289317962
rtoes 9.720353286977595
lowerback 9.711859914675347 -1.8213419227648968 0.5686244093429512
upperback -1.268740023537859 -2.2913584070218924 2.337302248848317
thorax -5.805165154169349 -1.1493323727521696 1.7679605944984238
lowerneck -16.187871707212558 -2.9673849659830576 -2.9400738070384635
upperneck 19.55230014388089 -3.5334101499085837 2.1594134481959277
head 8.923964939220928 -1.7014315761868193 0.7568329261702751
lclavicle -1.6757762349238714e-15 -3.592317305331589e-15
lhumerus -37.973915758491124 -10.830378086736726 89.68954361154047
lradius 80.05804426440098
lwrist 23.99876657585918
lhand -29.274981163220694 11.78634140454421
lfingers 7.125019999999999
lthumb -2.6153759619167873 41.853097974055125
rclavicle -1.6751513845278852e-15 -3.591843522670903e-15
rhumerus -42.58775605409326 -7.7026428147331725 -84.44733677696782
rradius 59.55742864170438
rwrist 1.1770893657009864
rhand -17.025817238000226 29.43589590136188
rfingers 7.125019999999999
rthumb 7.8462720130826655 0.6804399676195259
